<svg version="1.1" id="Capa_1" xmlns="http://www.w3.org/2000/svg" xmlns:xlink="http://www.w3.org/1999/xlink" x="0px" y="0px" viewBox="0 0 1200 1200" enable-background="new 0 0 1200 1200" xml:space="preserve">
<g>
	<path fill="#65676B" d="M1148.1,824.625c-3.488-19.211-8.537-37.898-15.071-55.584c-22.525-60.507-63.561-110.733-115.658-141.357&#10;&#9;&#9;c-44.038-25.876-100.061-40.207-166.359-42.56c-12.852-0.523-25.748-0.523-38.511,0c-35.983,1.351-69.437,6.796-99.451,16.205&#10;&#9;&#9;c-28.774,9.009-55.987,24.367-81.393,44.623c-50.62-26.284-112.628-41.508-185.769-44.1c-15.509-0.48-31.018-0.523-46.611,0.043&#10;&#9;&#9;c-43.472,1.656-83.77,8.233-119.708,19.516C167.875,656.39,83.411,753.794,53.658,882.039&#10;&#9;&#9;c-9.757,41.949,0.221,85.642,27.357,119.88c29.232,36.766,73.751,57.85,122.148,57.85h448.336c0,0,0.04,0,0.084,0&#10;&#9;&#9;c46.828,0,90.392-19.995,119.58-54.888c8.537-10.21,14.931-21.578,20.253-33.363l227.391,0.038&#10;&#9;&#9;c40.121,0,77.452-17.163,102.457-47.046C1144.7,896.457,1154.457,860.083,1148.1,824.625z M719.844,961.974&#10;&#9;&#9;c-16.424,19.647-41.293,30.885-68.305,30.885h-0.04H203.163c-27.879,0-53.278-11.848-69.742-32.54&#10;&#9;&#9;c-14.594-18.427-19.779-40.817-14.594-63.121c24.351-104.895,91.913-184.135,180.736-211.926&#10;&#9;&#9;c30.363-9.541,64.733-15.117,102.285-16.553c0,0,0,0,0.04,0c6.751-0.262,13.55-0.348,20.345-0.348c7.1,0,14.2,0.13,21.301,0.391&#10;&#9;&#9;c68.654,2.396,125.371,16.51,168.538,41.863c47.398,27.866,84.913,73.752,106.868,129.19c7.482,28.165,11.218,58.25,10.006,89.663&#10;&#9;&#9;c0,0.567,0.221,7.537,0.265,8.06c-0.032,2.485,0.827,4.791,1.329,7.184C727.719,950.754,724.332,956.605,719.844,961.974z&#10;&#9;&#9; M1069.905,881.56c-12.242,14.68-30.885,23.088-51.098,23.088l-215.346-0.041c-0.349-5.279-0.12-10.55-1.068-15.815&#10;&#9;&#9;c-4.182-23.045-10.279-45.479-18.122-66.649c-0.345-0.953-0.915-1.778-1.272-2.725c-15.083-55.027-42.669-103.979-80.711-141.202&#10;&#9;&#9;c9.934-5.401,20.173-9.714,30.713-13.025c24.395-7.623,51.969-12.066,82.112-13.242c11.154-0.435,22.348-0.392,33.498,0.043&#10;&#9;&#9;c55.108,1.961,100.498,13.199,134.823,33.369c38.856,22.869,69.698,60.855,86.864,106.943c5.141,13.983,9.191,28.837,11.933,44.171&#10;&#9;&#9;C1085.153,852.591,1080.754,868.621,1069.905,881.56z" style="fill: rgb(0, 0, 0);"/>
	<path fill="#65676B" d="M847.174,534.549c81.506,0,147.808-70.134,147.808-156.386S928.68,221.734,847.174,221.734&#10;&#9;&#9;c-81.502,0-147.804,70.177-147.804,156.429S765.672,534.549,847.174,534.549z M847.174,288.644&#10;&#9;&#9;c44.608,0,80.896,40.164,80.896,89.519s-36.288,89.475-80.896,89.475c-44.608,0-80.892-40.12-80.892-89.475&#10;&#9;&#9;S802.566,288.644,847.174,288.644z" style="fill: rgb(0, 0, 0);"/>
	<path fill="#65676B" d="M444.321,551.711c106.591,0,193.279-92.307,193.279-205.74c0-113.435-86.687-205.741-193.279-205.741&#10;&#9;&#9;c-106.555,0-193.243,92.307-193.243,205.741C251.079,459.405,337.766,551.711,444.321,551.711z M444.321,207.14&#10;&#9;&#9;c69.693,0,126.371,62.293,126.371,138.831c0,76.537-56.677,138.83-126.371,138.83c-69.657,0-126.331-62.293-126.331-138.83&#10;&#9;&#9;C317.991,269.433,374.664,207.14,444.321,207.14z" style="fill: rgb(0, 0, 0);"/>
</g>
</svg>